<?xml version="1.0" encoding="utf-8"?>
<!-- Generator: Adobe Illustrator 19.1.0, SVG Export Plug-In . SVG Version: 6.00 Build 0)  -->
<svg version="1.1" id="Слой_1" xmlns="http://www.w3.org/2000/svg" xmlns:xlink="http://www.w3.org/1999/xlink" x="0px" y="0px"
	 viewBox="0 0 118.8 32" style="enable-background:new 0 0 118.8 32;" xml:space="preserve">
<style type="text/css">
	.st0{fill:url(#SVGID_1_);}
	.st1{fill:url(#SVGID_2_);}
	.st2{fill:url(#SVGID_3_);}
	.st3{fill:none;}
	.st4{fill:url(#SVGID_4_);}
	.st5{fill:#4D4D4D;}
	.st6{fill:#FF9832;}
</style>
<g>
	<linearGradient id="SVGID_1_" gradientUnits="userSpaceOnUse" x1="16.0206" y1="32.2745" x2="16.0206" y2="-2.4515">
		<stop  offset="0" style="stop-color:#FF7132"/>
		<stop  offset="1" style="stop-color:#FFFF32"/>
	</linearGradient>
	<path class="st0" d="M29.2,32H2.8C1.3,32,0,30.8,0,29.2V2.8C0,1.3,1.3,0,2.8,0h26.4C30.8,0,32,1.3,32,2.8v26.4
		C32,30.8,30.8,32,29.2,32z"/>
	<linearGradient id="SVGID_2_" gradientUnits="userSpaceOnUse" x1="15.118" y1="12.9507" x2="5.8885" y2="2.3148">
		<stop  offset="0" style="stop-color:#2B2B2B"/>
		<stop  offset="1" style="stop-color:#4D4D4D"/>
	</linearGradient>
	<path class="st1" d="M15.6,9c-0.1,1.1-0.4,2.1-1.1,2.8c-0.8,0.8-1.8,1.2-3.1,1.2s-2.3-0.4-3.1-1.2C7.5,11,7.2,10,7.2,8.7
		s0.4-2.4,1.2-3.2C8.6,5.2,9,5,9.3,4.8c0,0,0,0,0,0s2.3-1.4,5.3-0.9c0.9,0.1,1.5,0.4,2,0.7c-0.2-0.2-0.4-0.4-0.6-0.6
		C14.8,2.7,13.2,2,11.4,2S8,2.7,6.7,4C5.4,5.3,4.8,6.8,4.8,8.7s0.6,3.4,1.9,4.7c1.3,1.3,2.9,1.9,4.7,1.9c1.6,0,3-0.5,4.2-1.5
		c0.2-0.1,0.3-0.3,0.5-0.4c0.9-0.9,1.5-2,1.8-3.3c-0.4,0.1-1,0.2-1.2,0.2C16.5,10,16.1,9.9,15.6,9z"/>
	<linearGradient id="SVGID_3_" gradientUnits="userSpaceOnUse" x1="26.1902" y1="26.8057" x2="10.5878" y2="4.9736">
		<stop  offset="0" style="stop-color:#FFFF32"/>
		<stop  offset="1" style="stop-color:#66CC00"/>
	</linearGradient>
	<path class="st2" d="M28.1,18c-0.8-1.4-2.1-2.5-3.7-3c-0.2-0.1-0.3-0.1-0.5-0.1c-0.1,0-0.1,0-0.2,0c0,0,0,0-0.1,0
		c-0.5-0.1-0.9-0.2-1.4-0.2c-1.5,0-2.8,0.5-3.9,1.3c-0.2,0.1-0.3,0.2-0.5,0.4c0,0,0,0,0,0c0-0.1,0-4.8,0-6.6c0-0.2,0-0.4,0-0.5
		c0-1.2-0.4-3-2.5-4.2c-1.9-1.1-3.9-0.7-3.9-0.7s0.3,0,0.5,0.1c1,0.1,1.8,0.5,2.4,1.2c0.8,0.8,1.2,1.9,1.2,3.2c0,0.1,0,0.3,0,0.4
		c0,1.2,0,3,0,4.7c0,2.9,0,5.8,0,5.8c0,0.5,0,1,0,1.4c0,0.1,0,0.2,0,0.4c0,1.2,0.3,2.3,0.8,3.3c0.8,1.3,2,2.4,3.4,3
		c0.8,0.3,1.6,0.5,2.4,0.5c3.7,0,6.7-3,6.7-6.7C29,20.1,28.7,19,28.1,18z M22.3,25.9c-2.5,0-4.5-2-4.5-4.5c0-0.3,0-0.7,0.1-1
		c0-0.2,0.1-0.3,0.1-0.5c0.4-1.1,1.3-2.1,2.4-2.6c0,0,0.1,0,0.1,0c0.5-0.2,1.1-0.4,1.7-0.4c2.5,0,4.5,2,4.5,4.5S24.8,25.9,22.3,25.9
		z"/>
	<path class="st3" d="M22.3,16.9c-0.7,0-1.3,0.2-1.9,0.4c-1.3,0.6-2.2,1.7-2.5,3.1c-0.1,0.3-0.1,0.6-0.1,1c0,2.5,2,4.5,4.5,4.5
		c2.5,0,4.5-2,4.5-4.5S24.8,16.9,22.3,16.9z"/>
	<path class="st3" d="M19.8,17.8c-0.8,0.6-1.4,1.3-1.7,2.1C18,20,18,20.2,17.9,20.4c-0.1,0.3-0.1,0.6-0.1,1c0,2.5,2,4.5,4.5,4.5
		c2.5,0,4.5-2,4.5-4.5s-2-4.5-4.5-4.5c-0.6,0-1.2,0.1-1.7,0.4l-0.5,0.3C20,17.7,19.9,17.7,19.8,17.8z"/>
	<linearGradient id="SVGID_4_" gradientUnits="userSpaceOnUse" x1="29.2078" y1="20.1856" x2="11.528" y2="18.3793">
		<stop  offset="0" style="stop-color:#FFFF32"/>
		<stop  offset="1" style="stop-color:#66CC00"/>
	</linearGradient>
	<path class="st4" d="M16.8,20.2c0.2,2.3,1.9,3.7,1.9,3.7s-0.2-0.3-0.3-0.5c-0.4-0.9-0.6-1.9-0.5-2.7c0-0.3,0.1-0.6,0.2-0.9
		c0.4-1.1,1.3-2.1,2.4-2.6c0,0,0.1,0,0.1,0l3.2-2.4c0,0,0,0,0,0c-0.5-0.1-0.9-0.2-1.4-0.2c-1.5,0-2.8,0.5-3.9,1.3
		c-0.2,0.1-0.3,0.2-0.5,0.4c0,0,0,0,0,0C17.2,17.2,16.6,18.4,16.8,20.2z"/>
	<g>
		<path class="st5" d="M68.7,14.8c-0.1,0-0.4,0-0.4,0s-2-0.1-3.9,1.6c-1.5,1.3-1.6,3.5-1.5,4.3v0.4c0,0,0,0,0,0l0,0v6.6h2.3v-6
			c0-1.6,0.3-2.7,1-3.6c0.6-0.8,1.5-1.1,2.6-1.1h0.3v-2.2L68.7,14.8z"/>
		<g>
			<path class="st5" d="M41.5,14.7c-1.8,0-3.4,0.6-4.7,1.9c-1.3,1.3-1.9,2.9-1.9,4.7s0.6,3.4,1.9,4.7c1.3,1.3,2.9,1.9,4.7,1.9
				s3.4-0.6,4.7-1.9c1.3-1.3,1.9-2.9,1.9-4.7s-0.6-3.4-1.9-4.7C44.9,15.4,43.3,14.7,41.5,14.7z M44.6,24.5c-0.8,0.8-1.8,1.2-3.1,1.2
				s-2.3-0.4-3.1-1.2c-0.8-0.8-1.2-1.9-1.2-3.2s0.4-2.4,1.2-3.2c0.8-0.8,1.8-1.2,3-1.2c1.3,0,2.3,0.4,3.1,1.2
				c0.8,0.8,1.2,1.9,1.2,3.2C45.7,22.7,45.3,23.7,44.6,24.5z"/>
			<path class="st5" d="M58.4,21.8c0,0.8-0.1,1.4-0.2,1.9c-0.2,0.8-0.7,1.3-1.5,1.7c-0.2,0.1-0.4,0.2-0.7,0.3
				c-0.2,0.1-0.5,0.1-0.7,0.1c-0.5,0-1-0.1-1.4-0.3c-0.7-0.4-1.2-1-1.5-1.7c-0.2-0.5-0.2-1.1-0.2-1.9V15h-2.3v6.8
				c0,1.1,0.1,2.1,0.4,2.9c0.4,1.1,1.1,1.9,2.1,2.5c0.8,0.5,1.8,0.8,2.9,0.8s2.1-0.3,2.9-0.8c1-0.6,1.7-1.5,2.1-2.5
				c0.3-0.8,0.4-1.7,0.4-2.9V15h-2.3V21.8z"/>
			<path class="st6" d="M95.8,23.8c-0.4,0.6-0.8,1.1-1.4,1.4c-0.4,0.2-0.7,0.4-1.1,0.4c-0.4,0.1-0.8,0.1-1.3,0.1
				c-0.4,0-0.8-0.1-1.2-0.2c-0.4-0.1-0.7-0.3-1.1-0.5c-0.6-0.4-1-0.9-1.4-1.5c-0.4-0.7-0.5-1.4-0.5-2.3c0-1.3,0.4-2.3,1.2-3.2
				c0.8-0.8,1.8-1.2,3-1.2c0.5,0,1,0.1,1.5,0.3c0.5,0.2,1,0.5,1.4,1l-6.3,3.5l1,1.9l8.6-4.8c-0.6-1.3-1.4-2.3-2.5-3
				c-1.1-0.7-2.3-1-3.6-1c-1.9,0-3.4,0.6-4.7,1.9c-1.3,1.3-1.9,2.8-1.9,4.7c0,1.3,0.3,2.5,1,3.6c0.7,1,1.5,1.8,2.6,2.4
				c1,0.5,1.9,0.7,3,0.7c0.6,0,1.2-0.1,1.8-0.2c0.6-0.1,1.1-0.4,1.6-0.6c0.8-0.4,1.4-1,1.9-1.6c0.8-1,1.2-2.1,1.3-3.5l-2.4-0.3
				C96.4,22.5,96.2,23.2,95.8,23.8z"/>
			<path class="st6" d="M102.8,11.9h-2.3v11.6c0,1.8,0.5,3.1,1.6,3.7c0.6,0.4,1.4,0.5,2.4,0.5h2.9v-2.2h-2.4c-1,0-1.7-0.2-1.9-0.6
				c-0.1-0.2-0.2-0.7-0.2-1.6v-6h4.6V15h-4.6V11.9z"/>
			<path class="st6" d="M118.1,22.2c-0.5-0.6-1.3-1.1-2.5-1.6c-1.1-0.3-2.3-0.7-3.4-1c-0.4-0.1-0.7-0.3-0.9-0.5
				c-0.3-0.2-0.5-0.6-0.5-0.9c0-0.3,0.1-0.6,0.4-0.7c0.3-0.2,0.6-0.3,1.1-0.3h6V15h-5.3c-0.8,0-1.5,0.1-2,0.2
				c-0.8,0.2-1.4,0.7-1.9,1.3c-0.3,0.4-0.4,0.7-0.5,1c-0.1,0.3-0.1,0.6-0.1,1c0,0.7,0.2,1.3,0.7,1.9c0.4,0.6,1.3,1.1,2.5,1.5
				c1.1,0.4,2.3,0.7,3.5,1.1c0.5,0.2,0.8,0.3,1,0.5c0.3,0.2,0.4,0.6,0.4,1c0,0.5-0.3,0.8-0.8,1c-0.2,0.1-0.6,0.1-1.2,0.1h-5.6v2.2
				h5.7c0.7,0,1.4-0.1,1.8-0.2c0.7-0.2,1.3-0.7,1.8-1.3c0.2-0.3,0.3-0.6,0.4-1c0.1-0.4,0.1-0.7,0.1-1.1
				C118.8,23.4,118.6,22.8,118.1,22.2z"/>
			<path class="st6" d="M83.6,18c-0.8-1.4-2.1-2.5-3.7-3c-0.2-0.1-0.3-0.1-0.5-0.1c-0.1,0-0.1,0-0.2,0c-0.5-0.1-1-0.2-1.5-0.2
				c-1.5,0-2.8,0.5-3.9,1.3c-0.2,0.1-0.3,0.2-0.5,0.4V9.2h-2.3v10.4c0,0.5,0,1,0,1.4c0,0.1,0,0.2,0,0.4c0,1.2,0.3,2.3,0.9,3.3
				c0.8,1.3,2,2.4,3.4,3c0.8,0.3,1.6,0.5,2.4,0.5c3.7,0,6.7-3,6.7-6.7C84.5,20.1,84.2,19,83.6,18z M73.3,21.4c0-0.3,0-0.7,0.1-1
				c0.3-1.4,1.3-2.5,2.5-3.1c0.6-0.3,1.2-0.4,1.9-0.4c2.5,0,4.5,2,4.5,4.5s-2,4.5-4.5,4.5C75.4,25.9,73.3,23.8,73.3,21.4z"/>
		</g>
	</g>
</g>
</svg>
